<svg t="1600681313425" class="icon" viewBox="0 0 1024 1024" version="1.1" xmlns="http://www.w3.org/2000/svg" p-id="10438" width="128" height="128"><path d="M776.192 652.760615c3.072 1.024 72.310154 26.151385 128.393846 62.857847 21.425231 13.627077 57.107692 37.730462 64.196923 73.255384 5.12 24.182154-3.072 52.460308-23.394461 84.913231a244.578462 244.578462 0 0 1-146.825846 103.739077c-25.442462 6.301538-53.956923 8.428308-82.550154 6.301538a356.352 356.352 0 0 1-94.759385-19.928615C493.883077 923.175385 387.859692 857.088 276.716308 749.095385 87.197538 563.672615 40.251077 377.147077 32.137846 341.543385-4.568615 177.073231 112.64 80.659692 125.873231 70.183385c18.353231-14.651077 35.682462-24.103385 51.987692-28.356923 8.192-2.048 16.305231-3.150769 23.473231-2.048 16.305231 1.102769 38.754462 7.325538 59.076923 35.603692 27.569231 36.706462 59.076923 91.214769 85.622154 149.897846 27.569231 60.731077-3.072 87.985231-32.610462 113.112615l-1.024 1.10277s-53.956923 40.802462-63.172923 47.104a23.236923 23.236923 0 0 0-6.144 30.404923A989.341538 989.341538 0 0 0 402.116923 615.975385a1072.128 1072.128 0 0 0 197.710769 152.969846c5.12 2.126769 10.24 4.174769 16.305231 2.126769h2.048a20.086154 20.086154 0 0 0 13.233231-12.603077 382.030769 382.030769 0 0 1 27.569231-52.381538c22.370462-34.579692 43.795692-53.405538 68.292923-58.683077 7.089231-2.048 13.233231-2.048 19.298461-2.048 6.144 0 17.329231 2.048 29.617231 7.325538z" p-id="10439" fill="#FFB400"></path></svg>