<?xml version="1.0" encoding="utf-8"?>
<svg version="1.1" xmlns:xlink="http://www.w3.org/1999/xlink" width="195px" height="75px" xmlns="http://www.w3.org/2000/svg">
  <defs>
    <filter x="95px" y="228px" width="195px" height="75px" filterUnits="userSpaceOnUse" id="filter135">
      <feOffset dx="5" dy="5" in="SourceAlpha" result="shadowOffsetInner" />
      <feGaussianBlur stdDeviation="2.5" in="shadowOffsetInner" result="shadowGaussian" />
      <feComposite in2="shadowGaussian" operator="atop" in="SourceAlpha" result="shadowComposite" />
      <feColorMatrix type="matrix" values="0 0 0 0 0  0 0 0 0 0  0 0 0 0 0  0 0 0 0.109803921568627 0  " in="shadowComposite" />
    </filter>
    <g id="widget136">
      <path d="M 95.5 278.734939759036  C 95.5 278.734939759036  95.5 236  95.5 236  C 95.5 231.857864376269  98.857864376269 228.5  103 228.5  C 103 228.5  272 228.5  272 228.5  C 276.142135623731 228.5  279.5 231.857864376269  279.5 236  C 279.5 236  279.5 278.734939759036  279.5 278.734939759036  C 279.5 282.877075382767  276.142135623731 286.234939759036  272 286.234939759036  C 272 286.234939759036  268.078939649175 286.234939759036  268.078939649175 286.234939759036  C 268.078939649175 286.234939759036  258.411577564793 292.409954796915  258.411577564793 292.409954796915  C 258.411577564793 292.409954796915  248.366391643638 286.234939759036  248.366391643638 286.234939759036  C 248.366391643638 286.234939759036  103 286.234939759036  103 286.234939759036  C 98.857864376269 286.234939759036  95.5 282.877075382767  95.5 278.734939759036  Z " fill-rule="nonzero" fill="#ffffff" stroke="none" />
      <path d="M 95 278.734939759036  C 95 278.734939759036  95 236  95 236  C 95 231.581722001354  98.5817220013537 228  103 228  C 103 228  272 228  272 228  C 276.418277998646 228  280 231.581722001354  280 236  C 280 236  280 278.734939759036  280 278.734939759036  C 280 283.153217757682  276.418277998646 286.734939759036  272 286.734939759036  C 272 286.734939759036  268.225 286.734939759036  268.225 286.734939759036  C 268.225 286.734939759036  258.416666666667 293  258.416666666667 293  C 258.416666666667 293  248.225 286.734939759036  248.225 286.734939759036  C 248.225 286.734939759036  103 286.734939759036  103 286.734939759036  C 98.5817220013537 286.734939759036  95 283.153217757682  95 278.734939759036  Z M 96 278.734939759036  C 96 282.600933007852  99.1340067511844 285.734939759036  103 285.734939759036  C 103 285.734939759036  248.507783287275 285.734939759036  248.507783287275 285.734939759036  C 248.507783287275 285.734939759036  258.406488462919 291.819909593831  258.406488462919 291.819909593831  C 258.406488462919 291.819909593831  267.932879298351 285.734939759036  267.932879298351 285.734939759036  C 267.932879298351 285.734939759036  272 285.734939759036  272 285.734939759036  C 275.865993248816 285.734939759036  279 282.600933007852  279 278.734939759036  C 279 278.734939759036  279 236  279 236  C 279 232.134006751184  275.865993248816 229  272 229  C 272 229  103 229  103 229  C 99.1340067511844 229  96 232.134006751184  96 236  C 96 236  96 278.734939759036  96 278.734939759036  Z " fill-rule="nonzero" fill="#e4e4e4" stroke="none" />
    </g>
  </defs>
  <g transform="matrix(1 0 0 1 -95 -228 )">
    <use xlink:href="#widget136" filter="url(#filter135)" />
    <use xlink:href="#widget136" />
  </g>
</svg>