<?xml version="1.0" encoding="utf-8"?>
<svg version="1.1" xmlns:xlink="http://www.w3.org/1999/xlink" width="397px" height="349px" xmlns="http://www.w3.org/2000/svg">
  <g transform="matrix(1 0 0 1 -3107 -712 )">
    <path d="M 3107.5 1017.11764705882  C 3107.5 1017.11764705882  3107.5 721  3107.5 721  C 3107.5 716.305579626438  3111.30557962644 712.5  3116 712.5  C 3116 712.5  3495 712.5  3495 712.5  C 3499.69442037356 712.5  3503.5 716.305579626438  3503.5 721  C 3503.5 721  3503.5 1017.11764705882  3503.5 1017.11764705882  C 3503.5 1021.81206743239  3499.69442037356 1025.61764705882  3495 1025.61764705882  C 3495 1025.61764705882  3203.16347901991 1025.61764705882  3203.16347901991 1025.61764705882  C 3203.16347901991 1025.61764705882  3158.41870379268 1058.68978697466  3158.41870379268 1058.68978697466  C 3158.41870379268 1058.68978697466  3176.78550623882 1025.61764705882  3176.78550623882 1025.61764705882  C 3176.78550623882 1025.61764705882  3116 1025.61764705882  3116 1025.61764705882  C 3111.30557962644 1025.61764705882  3107.5 1021.81206743239  3107.5 1017.11764705882  Z " fill-rule="nonzero" fill="#ffff00" stroke="none" fill-opacity="0.109803921568627" />
    <path d="M 3107 1017.11764705882  C 3107 1017.11764705882  3107 721  3107 721  C 3107 716.029437251523  3111.02943725152 712  3116 712  C 3116 712  3495 712  3495 712  C 3499.97056274848 712  3504 716.029437251523  3504 721  C 3504 721  3504 1017.11764705882  3504 1017.11764705882  C 3504 1022.0882098073  3499.97056274848 1026.11764705882  3495 1026.11764705882  C 3495 1026.11764705882  3203.3282051282 1026.11764705882  3203.3282051282 1026.11764705882  C 3203.3282051282 1026.11764705882  3156.86282051282 1060.46153846154  3156.86282051282 1060.46153846154  C 3156.86282051282 1060.46153846154  3175.9358974359 1026.11764705882  3175.9358974359 1026.11764705882  C 3175.9358974359 1026.11764705882  3116 1026.11764705882  3116 1026.11764705882  C 3111.02943725152 1026.11764705882  3107 1022.0882098073  3107 1017.11764705882  Z M 3108 1017.11764705882  C 3108 1021.53592505747  3111.58172200135 1025.11764705882  3116 1025.11764705882  C 3116 1025.11764705882  3177.63511504174 1025.11764705882  3177.63511504174 1025.11764705882  C 3177.63511504174 1025.11764705882  3159.97458707253 1056.91803548777  3159.97458707253 1056.91803548777  C 3159.97458707253 1056.91803548777  3202.99875291161 1025.11764705882  3202.99875291161 1025.11764705882  C 3202.99875291161 1025.11764705882  3495 1025.11764705882  3495 1025.11764705882  C 3499.41827799865 1025.11764705882  3503 1021.53592505747  3503 1017.11764705882  C 3503 1017.11764705882  3503 721  3503 721  C 3503 716.581722001354  3499.41827799865 713  3495 713  C 3495 713  3116 713  3116 713  C 3111.58172200135 713  3108 716.581722001354  3108 721  C 3108 721  3108 1017.11764705882  3108 1017.11764705882  Z " fill-rule="nonzero" fill="#999999" stroke="none" />
  </g>
</svg>