<?xml version="1.0" encoding="utf-8"?>
<svg version="1.1" xmlns:xlink="http://www.w3.org/1999/xlink" width="397px" height="195px" xmlns="http://www.w3.org/2000/svg">
  <g transform="matrix(1 0 0 1 -2707 -1099 )">
    <path d="M 2707.5 1265.5098601045  C 2707.5 1265.5098601045  2707.5 1108  2707.5 1108  C 2707.5 1103.30557962644  2711.30557962644 1099.5  2716 1099.5  C 2716 1099.5  3095 1099.5  3095 1099.5  C 3099.69442037356 1099.5  3103.5 1103.30557962644  3103.5 1108  C 3103.5 1108  3103.5 1265.5098601045  3103.5 1265.5098601045  C 3103.5 1270.20428047806  3099.69442037356 1274.0098601045  3095 1274.0098601045  C 3095 1274.0098601045  2803.22902265039 1274.0098601045  2803.22902265039 1274.0098601045  C 2803.22902265039 1274.0098601045  2758.97072528522 1292.28765723504  2758.97072528522 1292.28765723504  C 2758.97072528522 1292.28765723504  2777.13783865612 1274.0098601045  2777.13783865612 1274.0098601045  C 2777.13783865612 1274.0098601045  2716 1274.0098601045  2716 1274.0098601045  C 2711.30557962644 1274.0098601045  2707.5 1270.20428047806  2707.5 1265.5098601045  Z " fill-rule="nonzero" fill="#ffff00" stroke="none" fill-opacity="0.109803921568627" />
    <path d="M 2707 1265.5098601045  C 2707 1265.5098601045  2707 1108  2707 1108  C 2707 1103.02943725152  2711.02943725152 1099  2716 1099  C 2716 1099  3095 1099  3095 1099  C 3099.97056274848 1099  3104 1103.02943725152  3104 1108  C 3104 1108  3104 1265.5098601045  3104 1265.5098601045  C 3104 1270.48042285298  3099.97056274848 1274.5098601045  3095 1274.5098601045  C 3095 1274.5098601045  2803.3282051282 1274.5098601045  2803.3282051282 1274.5098601045  C 2803.3282051282 1274.5098601045  2756.86282051282 1293.69914040115  2756.86282051282 1293.69914040115  C 2756.86282051282 1293.69914040115  2775.9358974359 1274.5098601045  2775.9358974359 1274.5098601045  C 2775.9358974359 1274.5098601045  2716 1274.5098601045  2716 1274.5098601045  C 2711.02943725152 1274.5098601045  2707 1270.48042285298  2707 1265.5098601045  Z M 2708 1265.5098601045  C 2708 1269.92813810315  2711.58172200135 1273.5098601045  2716 1273.5098601045  C 2716 1273.5098601045  2778.33977987635 1273.5098601045  2778.33977987635 1273.5098601045  C 2778.33977987635 1273.5098601045  2761.07863005762 1290.87617406894  2761.07863005762 1290.87617406894  C 2761.07863005762 1290.87617406894  2803.12984017258 1273.5098601045  2803.12984017258 1273.5098601045  C 2803.12984017258 1273.5098601045  3095 1273.5098601045  3095 1273.5098601045  C 3099.41827799865 1273.5098601045  3103 1269.92813810315  3103 1265.5098601045  C 3103 1265.5098601045  3103 1108  3103 1108  C 3103 1103.58172200135  3099.41827799865 1100  3095 1100  C 3095 1100  2716 1100  2716 1100  C 2711.58172200135 1100  2708 1103.58172200135  2708 1108  C 2708 1108  2708 1265.5098601045  2708 1265.5098601045  Z " fill-rule="nonzero" fill="#999999" stroke="none" />
  </g>
</svg>