<?xml version="1.0" encoding="utf-8"?>
<svg version="1.1" xmlns:xlink="http://www.w3.org/1999/xlink" width="30px" height="18px" xmlns="http://www.w3.org/2000/svg">
  <g transform="matrix(1 0 0 1 -10 -635 )">
    <path d="M 5.75 12  C 5.91666666666667 12  6 12.0833333333333  6 12.25  L 6 13.75  C 6 13.9166666666667  5.91666666666667 14  5.75 14  L 4.25 14  C 4.08333333333333 14  4 13.9166666666667  4 13.75  L 4 12.25  C 4 12.0833333333333  4.08333333333333 12  4.25 12  L 5.75 12  Z M 7.75 8  C 7.91666666666667 8  8 8.08333333333333  8 8.25  L 8 9.75  C 8 9.91666666666666  7.91666666666667 10  7.75 10  L 4.25 10  C 4.08333333333333 10  4 9.91666666666666  4 9.75  L 4 8.25  C 4 8.08333333333333  4.08333333333333 8  4.25 8  L 7.75 8  Z M 5.75 4  C 5.91666666666667 4  6 4.08333333333333  6 4.25  L 6 5.75  C 6 5.91666666666667  5.91666666666667 6  5.75 6  L 4.25 6  C 4.08333333333333 6  4 5.91666666666667  4 5.75  L 4 4.25  C 4 4.08333333333333  4.08333333333333 4  4.25 4  L 5.75 4  Z M 21.75 12  C 21.9166666666667 12  22 12.0833333333333  22 12.25  L 22 13.75  C 22 13.9166666666667  21.9166666666667 14  21.75 14  L 8.25 14  C 8.08333333333333 14  8 13.9166666666667  8 13.75  L 8 12.25  C 8 12.0833333333333  8.08333333333333 12  8.25 12  L 21.75 12  Z M 11.75 8  C 11.9166666666667 8  12 8.08333333333333  12 8.25  L 12 9.75  C 12 9.91666666666666  11.9166666666667 10  11.75 10  L 10.25 10  C 10.0833333333333 10  10 9.91666666666666  10 9.75  L 10 8.25  C 10 8.08333333333333  10.0833333333333 8  10.25 8  L 11.75 8  Z M 9.75 4  C 9.91666666666667 4  10 4.08333333333333  10 4.25  L 10 5.75  C 10 5.91666666666667  9.91666666666667 6  9.75 6  L 8.25 6  C 8.08333333333333 6  8 5.91666666666667  8 5.75  L 8 4.25  C 8 4.08333333333333  8.08333333333333 4  8.25 4  L 9.75 4  Z M 15.75 8  C 15.9166666666667 8  16 8.08333333333333  16 8.25  L 16 9.75  C 16 9.91666666666666  15.9166666666667 10  15.75 10  L 14.25 10  C 14.0833333333333 10  14 9.91666666666666  14 9.75  L 14 8.25  C 14 8.08333333333333  14.0833333333333 8  14.25 8  L 15.75 8  Z M 13.75 4  C 13.9166666666667 4  14 4.08333333333333  14 4.25  L 14 5.75  C 14 5.91666666666667  13.9166666666667 6  13.75 6  L 12.25 6  C 12.0833333333333 6  12 5.91666666666667  12 5.75  L 12 4.25  C 12 4.08333333333333  12.0833333333333 4  12.25 4  L 13.75 4  Z M 19.75 8  C 19.9166666666667 8  20 8.08333333333333  20 8.25  L 20 9.75  C 20 9.91666666666666  19.9166666666667 10  19.75 10  L 18.25 10  C 18.0833333333333 10  18 9.91666666666666  18 9.75  L 18 8.25  C 18 8.08333333333333  18.0833333333333 8  18.25 8  L 19.75 8  Z M 25.75 12  C 25.9166666666667 12  26 12.0833333333333  26 12.25  L 26 13.75  C 26 13.9166666666667  25.9166666666667 14  25.75 14  L 24.25 14  C 24.0833333333333 14  24 13.9166666666667  24 13.75  L 24 12.25  C 24 12.0833333333333  24.0833333333333 12  24.25 12  L 25.75 12  Z M 17.75 4  C 17.9166666666667 4  18 4.08333333333333  18 4.25  L 18 5.75  C 18 5.91666666666667  17.9166666666667 6  17.75 6  L 16.25 6  C 16.0833333333333 6  16 5.91666666666667  16 5.75  L 16 4.25  C 16 4.08333333333333  16.0833333333333 4  16.25 4  L 17.75 4  Z M 21.75 4  C 21.9166666666667 4  22 4.08333333333333  22 4.25  L 22 5.75  C 22 5.91666666666667  21.9166666666667 6  21.75 6  L 20.25 6  C 20.0833333333333 6  20 5.91666666666667  20 5.75  L 20 4.25  C 20 4.08333333333333  20.0833333333333 4  20.25 4  L 21.75 4  Z M 25.75 4  C 25.9166666666667 4  26 4.08333333333333  26 4.25  L 26 9.75  C 26 9.91666666666666  25.9166666666667 10  25.75 10  L 22.25 10  C 22.0833333333333 10  22 9.91666666666666  22 9.75  L 22 8.25  C 22 8.08333333333333  22.0833333333333 8  22.25 8  L 24 8  L 24 4.25  C 24 4.08333333333333  24.0833333333333 4  24.25 4  L 25.75 4  Z M 2 16  L 28 16  L 28 2  L 2 2  L 2 16  Z M 29.4140625 0.585937500000001  C 29.8046875 0.9765625  30 1.44791666666666  30 2  L 30 16  C 30 16.5520833333333  29.8046875 17.0234375  29.4140625 17.4140625  C 29.0234375 17.8046875  28.5520833333333 18  28 18  L 2 18  C 1.44791666666667 18  0.9765625 17.8046875  0.5859375 17.4140625  C 0.1953125 17.0234375  0 16.5520833333333  0 16  L 0 2  C 0 1.44791666666666  0.1953125 0.9765625  0.5859375 0.585937500000001  C 0.9765625 0.1953125  1.44791666666667 0  2 0  L 28 0  C 28.5520833333333 0  29.0234375 0.1953125  29.4140625 0.585937500000001  Z " fill-rule="nonzero" fill="#333333" stroke="none" transform="matrix(1 0 0 1 10 635 )" />
  </g>
</svg>