<?xml version="1.0" encoding="utf-8"?>
<svg version="1.1" xmlns:xlink="http://www.w3.org/1999/xlink" width="17px" height="19px" xmlns="http://www.w3.org/2000/svg">
  <g transform="matrix(1 0 0 1 -8 -74 )">
    <path d="M 7.46814903846154 1.77594866071428  C 7.21614583333333 1.49674479166667  6.90625 1.35714285714286  6.53846153846154 1.35714285714286  C 6.17748397435898 1.35714285714286  5.86929086538462 1.48967633928572  5.61388221153846 1.75474330357143  C 5.35847355769231 2.01981026785714  5.23076923076923 2.33965773809524  5.23076923076923 2.71428571428572  L 5.23076923076923 8.14285714285714  L 5.23076923076923 12.2142857142857  L 3.68810096153846 10.0725446428571  C 3.40885416666667 9.69084821428571  3.04447115384615 9.5  2.59495192307692 9.5  C 2.24078525641026 9.5  1.93770032051282 9.63430059523809  1.68569711538462 9.90290178571429  C 1.43369391025641 10.1715029761905  1.30769230769231 10.4895833333333  1.30769230769231 10.8571428571429  C 1.30769230769231 11.1610863095238  1.39623397435897 11.4332217261905  1.57331730769231 11.6735491071429  L 5.49639423076923 17.1021205357143  C 5.75520833333333 17.4626116071429  6.1025641025641 17.6428571428571  6.53846153846154 17.6428571428571  L 13.8737980769231 17.6428571428571  C 14.0236378205128 17.6428571428571  14.1581530448718 17.5951450892857  14.27734375 17.4997209821429  C 14.3965344551282 17.404296875  14.4731570512821 17.2823660714286  14.5072115384615 17.1339285714286  L 15.4471153846154 13.2321428571429  C 15.6105769230769 12.5535714285714  15.6923076923077 11.867931547619  15.6923076923077 11.1752232142857  L 15.6923076923077 8.87444196428572  C 15.6923076923077 8.58463541666667  15.5969551282051 8.33370535714286  15.40625 8.12165178571428  C 15.2155448717949 7.90959821428572  14.9839743589744 7.80357142857143  14.7115384615385 7.80357142857143  C 14.4391025641026 7.80357142857143  14.2075320512821 7.90252976190476  14.0168269230769 8.10044642857143  C 13.8261217948718 8.29836309523809  13.7307692307692 8.53869047619047  13.7307692307692 8.82142857142857  L 13.4038461538462 8.82142857142857  L 13.4038461538462 8.17466517857143  C 13.4038461538462 7.83537946428572  13.2948717948718 7.5473400297619  13.0769230769231 7.310546875  C 12.8589743589744 7.07375372023809  12.5865384615385 6.95535714285714  12.2596153846154 6.95535714285714  C 11.9463141025641 6.95535714285714  11.6772836538462 7.07198660714286  11.4525240384615 7.30524553571428  C 11.2277644230769 7.53850446428572  11.1153846153846 7.81770833333333  11.1153846153846 8.14285714285714  L 11.1153846153846 8.82142857142857  L 10.7884615384615 8.82142857142857  L 10.7884615384615 7.8671875  C 10.7884615384615 7.47842261904762  10.6624599358974 7.14443824404762  10.4104567307692 6.865234375  C 10.158453525641 6.58603050595238  9.84855769230769 6.44642857142857  9.48076923076923 6.44642857142857  C 9.11979166666667 6.44642857142857  8.81159855769231 6.57896205357143  8.55618990384615 6.84402901785714  C 8.30078125 7.10909598214286  8.17307692307692 7.42894345238095  8.17307692307692 7.80357142857143  L 8.17307692307692 8.82142857142857  L 7.84615384615385 8.82142857142857  L 7.84615384615385 2.77790178571428  C 7.84615384615385 2.3891369047619  7.72015224358974 2.0551525297619  7.46814903846154 1.77594866071428  Z M 4.68930288461538 0.795200892857143  C 5.20012019230769 0.265066964285715  5.81650641025641 0  6.53846153846154 0  C 7.26722756410256 0  7.88531650641026 0.273902529761906  8.39272836538461 0.821707589285715  C 8.90014022435898 1.36951264880952  9.15384615384615 2.02157738095238  9.15384615384615 2.77790178571428  L 9.15384615384615 5.11049107142857  C 9.3036858974359 5.09635416666667  9.41266025641026 5.08928571428572  9.48076923076923 5.08928571428572  C 10.1550480769231 5.08928571428572  10.7441907051282 5.33314732142857  11.2481971153846 5.82087053571428  C 11.5683092948718 5.67243303571428  11.9054487179487 5.59821428571428  12.2596153846154 5.59821428571428  C 13.0292467948718 5.59821428571428  13.6558493589744 5.90569196428572  14.1394230769231 6.52064732142857  C 14.3233173076923 6.4711681547619  14.5140224358974 6.44642857142857  14.7115384615385 6.44642857142857  C 15.3517628205128 6.44642857142857  15.8932291666667 6.68498883928572  16.3359375 7.162109375  C 16.7786458333333 7.63922991071428  17 8.21000744047619  17 8.87444196428572  L 17 11.1752232142857  C 17 11.9951636904762  16.9046474358974 12.7903645833333  16.7139423076923 13.5608258928571  L 15.7740384615385 17.4626116071429  C 15.6650641025641 17.9149925595238  15.4334935897436 18.2843191964286  15.0793269230769 18.5705915178571  C 14.7251602564103 18.8568638392857  14.3233173076923 19  13.8737980769231 19  L 6.53846153846154 19  C 6.12980769230769 19  5.73988381410256 18.9028087797619  5.36868990384615 18.7084263392857  C 4.99749599358974 18.5140438988095  4.68930288461539 18.250744047619  4.44411057692308 17.9185267857143  L 0.521033653846154 12.4899553571429  C 0.173677884615385 12.0093005952381  0 11.4650297619048  0 10.8571428571429  C 0 10.1149553571429  0.253705929487179 9.4770275297619  0.761117788461538 8.943359375  C 1.2685296474359 8.4096912202381  1.87980769230769 8.14285714285714  2.59495192307692 8.14285714285714  C 3.07852564102564 8.14285714285714  3.52123397435897 8.26655505952381  3.92307692307692 8.51395089285714  L 3.92307692307692 2.71428571428572  C 3.92307692307692 1.96502976190476  4.17848557692308 1.32533482142857  4.68930288461538 0.795200892857143  Z M 7.51923076923077 14.9285714285714  L 7.84615384615385 14.9285714285714  L 7.84615384615385 10.8571428571429  L 7.51923076923077 10.8571428571429  L 7.51923076923077 14.9285714285714  Z M 10.1346153846154 14.9285714285714  L 10.4615384615385 14.9285714285714  L 10.4615384615385 10.8571428571429  L 10.1346153846154 10.8571428571429  L 10.1346153846154 14.9285714285714  Z M 12.75 14.9285714285714  L 13.0769230769231 14.9285714285714  L 13.0769230769231 10.8571428571429  L 12.75 10.8571428571429  L 12.75 14.9285714285714  Z " fill-rule="nonzero" fill="#333333" stroke="none" transform="matrix(1 0 0 1 8 74 )" />
  </g>
</svg>