<?xml version="1.0" encoding="utf-8"?>
<svg version="1.1" xmlns:xlink="http://www.w3.org/1999/xlink" width="14px" height="16px" xmlns="http://www.w3.org/2000/svg">
  <g transform="matrix(1 0 0 1 -311 -341 )">
    <path d="M 10.2994791666667 10.8333333333333  C 10.4149305555556 10.7013888888889  10.47265625 10.5416666666667  10.47265625 10.3541666666667  C 10.47265625 10.1736111111111  10.4149305555556 10.0173611111111  10.2994791666667 9.88541666666667  L 8.64973958333333 8  L 10.2994791666667 6.11458333333333  C 10.4149305555556 5.98263888888889  10.47265625 5.82638888888889  10.47265625 5.64583333333333  C 10.47265625 5.45833333333333  10.4149305555556 5.29861111111111  10.2994791666667 5.16666666666667  L 9.47916666666667 4.22916666666667  C 9.36371527777778 4.09722222222222  9.22395833333333 4.03125  9.05989583333333 4.03125  C 8.90190972222222 4.03125  8.76519097222222 4.09722222222222  8.64973958333333 4.22916666666667  L 7 6.11458333333333  L 5.35026041666667 4.22916666666667  C 5.23480902777778 4.09722222222222  5.09809027777778 4.03125  4.94010416666667 4.03125  C 4.77604166666667 4.03125  4.63628472222222 4.09722222222222  4.52083333333333 4.22916666666667  L 3.70052083333333 5.16666666666667  C 3.58506944444444 5.29861111111111  3.52734375 5.45833333333333  3.52734375 5.64583333333333  C 3.52734375 5.82638888888889  3.58506944444444 5.98263888888889  3.70052083333333 6.11458333333333  L 5.35026041666667 8  L 3.70052083333333 9.88541666666667  C 3.58506944444444 10.0173611111111  3.52734375 10.1736111111111  3.52734375 10.3541666666667  C 3.52734375 10.5416666666667  3.58506944444444 10.7013888888889  3.70052083333333 10.8333333333333  L 4.52083333333333 11.7708333333333  C 4.63628472222222 11.9027777777778  4.77604166666667 11.96875  4.94010416666667 11.96875  C 5.09809027777778 11.96875  5.23480902777778 11.9027777777778  5.35026041666667 11.7708333333333  L 7 9.88541666666667  L 8.64973958333333 11.7708333333333  C 8.76519097222222 11.9027777777778  8.90190972222222 11.96875  9.05989583333333 11.96875  C 9.22395833333333 11.96875  9.36371527777778 11.9027777777778  9.47916666666667 11.7708333333333  L 10.2994791666667 10.8333333333333  Z M 13.0611979166667 3.984375  C 13.6870659722222 5.21006944444444  14 6.54861111111111  14 8  C 14 9.45138888888889  13.6870659722222 10.7899305555556  13.0611979166667 12.015625  C 12.4353298611111 13.2413194444444  11.5861545138889 14.2118055555556  10.513671875 14.9270833333333  C 9.44118923611111 15.6423611111111  8.26996527777778 16  7 16  C 5.73003472222222 16  4.55881076388889 15.6423611111111  3.486328125 14.9270833333333  C 2.41384548611111 14.2118055555556  1.56467013888889 13.2413194444444  0.938802083333333 12.015625  C 0.312934027777778 10.7899305555556  0 9.45138888888889  0 8  C 0 6.54861111111111  0.312934027777778 5.21006944444444  0.938802083333333 3.984375  C 1.56467013888889 2.75868055555556  2.41384548611111 1.78819444444444  3.486328125 1.07291666666667  C 4.55881076388889 0.357638888888888  5.73003472222222 0  7 0  C 8.26996527777778 0  9.44118923611111 0.357638888888888  10.513671875 1.07291666666667  C 11.5861545138889 1.78819444444444  12.4353298611111 2.75868055555556  13.0611979166667 3.984375  Z " fill-rule="nonzero" fill="#333333" stroke="none" transform="matrix(1 0 0 1 311 341 )" />
  </g>
</svg>