<?xml version="1.0" encoding="utf-8"?>
<svg version="1.1" xmlns:xlink="http://www.w3.org/1999/xlink" width="300px" height="386px" xmlns="http://www.w3.org/2000/svg">
  <g transform="matrix(1 0 0 1 -481 -126 )">
    <path d="M 481 126  L 781 126  L 781 512  L 481 512  L 481 126  " fill-rule="nonzero" fill="#cccccc" stroke="none" />
    <path d="M 502 147  L 760 147  L 760 491  L 502 491  L 502 147  " fill-rule="nonzero" fill="#ffffff" stroke="none" />
    <path d="M 659.5 228.9  C 646.9 228.9  637 219  637 206.4  C 637 193.8  646.9 183.9  659.5 183.9  C 672.1 183.9  682 193.8  682 206.4  C 682 219  672.1 228.9  659.5 228.9  " fill-rule="nonzero" fill="#cccccc" stroke="none" />
    <path d="M 510 484  L 510 303.05  L 570.75 220.8  L 655.8 286.6  L 704.4 270.15  L 753 286.6  L 753 484  L 510 484  " fill-rule="nonzero" fill="#169bd5" stroke="none" />
  </g>
</svg>