<?xml version="1.0" encoding="utf-8"?>
<svg version="1.1" xmlns:xlink="http://www.w3.org/1999/xlink" width="25px" height="23px" xmlns="http://www.w3.org/2000/svg">
  <g transform="matrix(1 0 0 1 -452 -79 )">
    <path d="M 24.6907552083333 18.74140625  C 24.8969184027778 18.9690104166667  25 19.2385416666667  25 19.55  L 25 21.85  C 25 22.1614583333333  24.8969184027778 22.4309895833333  24.6907552083333 22.65859375  C 24.4845920138889 22.8861979166667  24.2404513888889 23  23.9583333333333 23  L 1.04166666666667 23  C 0.759548611111111 23  0.515407986111111 22.8861979166667  0.309244791666667 22.65859375  C 0.103081597222222 22.4309895833333  0 22.1614583333333  0 21.85  L 0 19.55  C 0 19.2385416666667  0.103081597222222 18.9690104166667  0.309244791666667 18.74140625  C 0.515407986111111 18.5138020833333  0.759548611111111 18.4  1.04166666666667 18  L 23.9583333333333 18  C 24.2404513888889 18.4  24.4845920138889 18.5138020833333  24.6907552083333 18.74140625  Z M 24.6907552083333 9.54140625  C 24.8969184027778 9.76901041666667  25 10.0385416666667  25 10.35  L 25 12.65  C 25 12.9614583333333  24.8969184027778 13.2309895833333  24.6907552083333 13.45859375  C 24.4845920138889 13.6861979166667  24.2404513888889 13.8  23.9583333333333 13.8  L 1.04166666666667 13.8  C 0.759548611111111 13.8  0.515407986111111 13.6861979166667  0.309244791666667 13.45859375  C 0.103081597222222 13.2309895833333  0 12.9614583333333  0 12.65  L 0 10.35  C 0 10.0385416666667  0.103081597222222 9.76901041666667  0.309244791666667 9.54140625  C 0.515407986111111 9.31380208333334  0.759548611111111 9.2  1.04166666666667 9.2  L 23.9583333333333 9.2  C 24.2404513888889 9.2  24.4845920138889 9.31380208333334  24.6907552083333 9.54140625  Z M 24.6907552083333 0.341406250000001  C 24.8969184027778 0.569010416666665  25 0.838541666666665  25 1.15  L 25 3.45  C 25 3.76145833333333  24.8969184027778 4.03098958333333  24.6907552083333 4.25859375  C 24.4845920138889 4.48619791666666  24.2404513888889 4.6  23.9583333333333 5  L 1.04166666666667 5  C 0.759548611111111 4.6  0.515407986111111 4.48619791666666  0.309244791666667 4.25859375  C 0.103081597222222 4.03098958333333  0 3.76145833333333  0 3.45  L 0 1.15  C 0 0.838541666666665  0.103081597222222 0.569010416666665  0.309244791666667 0.341406250000001  C 0.515407986111111 0.113802083333332  0.759548611111111 0  1.04166666666667 0  L 23.9583333333333 0  C 24.2404513888889 0  24.4845920138889 0.113802083333332  24.6907552083333 0.341406250000001  Z " fill-rule="nonzero" fill="#333333" stroke="none" transform="matrix(1 0 0 1 452 79 )" />
  </g>
</svg>