<?xml version="1.0" encoding="utf-8"?>
<svg version="1.1" xmlns:xlink="http://www.w3.org/1999/xlink" width="300px" height="149px" xmlns="http://www.w3.org/2000/svg">
  <g transform="matrix(1 0 0 1 -481 -522 )">
    <path d="M 481 522  L 781 522  L 781 671  L 481 671  L 481 522  " fill-rule="nonzero" fill="#cccccc" stroke="none" />
    <path d="M 491 532  L 771 532  L 771 661  L 491 661  L 491 532  " fill-rule="nonzero" fill="#ffffff" stroke="none" />
    <path d="M 648.175 566.7  C 641.917 566.7  637 561.783  637 555.525  C 637 549.267  641.917 544.35  648.175 544.35  C 654.433 544.35  659.35 549.267  659.35 555.525  C 659.35 561.783  654.433 566.7  648.175 566.7  " fill-rule="nonzero" fill="#cccccc" stroke="none" />
    <path d="M 495 658  L 495 590.9  L 563.25 560.4  L 658.8 621.644  L 713.4 578.7  L 768 621.644  L 768 658  L 495 658  " fill-rule="nonzero" fill="#169bd5" stroke="none" />
  </g>
</svg>